<svg width="29" height="29" viewBox="0 0 29 29" fill="none" xmlns="http://www.w3.org/2000/svg">
<g clip-path="url(#clip0_7_11)">
<path d="M4.90839 8.99173L9.38061 10.2828L14.2962 6.71284L7.24172 6.91506C7.17265 6.91883 7.10571 6.94026 7.04728 6.97729L4.81506 8.26062C4.74562 8.29909 4.68932 8.35751 4.65345 8.42832C4.61757 8.49913 4.60377 8.57908 4.61382 8.65782C4.62387 8.73656 4.65732 8.81048 4.70983 8.87001C4.76235 8.92953 4.83152 8.97194 4.90839 8.99173Z" fill="#D72638"/>
<path d="M27.7694 4.50668L22.8694 3.44891C22.4573 3.35944 22.0308 3.35968 21.6188 3.44959C21.2068 3.5395 20.819 3.71699 20.4816 3.97002L5.68054 14.7267L2.12609 14.5711C1.9225 14.5642 1.72187 14.6214 1.55254 14.7347C1.38321 14.8479 1.25374 15.0115 1.1824 15.2023C1.11106 15.3931 1.10146 15.6015 1.15495 15.7981C1.20845 15.9947 1.32234 16.1694 1.48054 16.2978L4.94165 19.0433C4.99863 19.0893 5.06645 19.1199 5.13862 19.1321C5.2108 19.1444 5.28491 19.1379 5.35387 19.1133C6.34165 18.7322 10.0205 16.78 14.3683 14.3922L15.2394 23.3445C15.2468 23.422 15.2752 23.496 15.3216 23.5586C15.368 23.6212 15.4306 23.6699 15.5026 23.6995C15.5746 23.7291 15.6534 23.7385 15.7304 23.7266C15.8074 23.7148 15.8796 23.6822 15.9394 23.6322L17.8839 22.0145C17.9903 21.9252 18.0619 21.8013 18.0861 21.6645L19.9294 11.3278C23.0405 9.60113 26.0116 7.9289 28.1039 6.74668C28.321 6.62854 28.4965 6.4465 28.6068 6.22525C28.717 6.00399 28.7565 5.7542 28.72 5.50972C28.6835 5.26525 28.5727 5.0379 28.4027 4.85849C28.2327 4.67907 28.0116 4.55626 27.7694 4.50668Z" fill="#D72638"/>
</g>
<defs>
<clipPath id="clip0_7_11">
<rect width="28" height="28" fill="white" transform="translate(0.047287 0.047287)"/>
</clipPath>
</defs>
</svg>
