<svg width="158" height="66" viewBox="0 0 158 66" fill="none" xmlns="http://www.w3.org/2000/svg">
<g clip-path="url(#clip0_70_461)">
<path d="M132.946 10.1794L136.222 13.4861L142.254 12.7637L135.995 9.50293C135.933 9.47257 135.864 9.45865 135.795 9.46252L133.22 9.4955C133.141 9.49526 133.063 9.51884 132.998 9.5632C132.932 9.60755 132.881 9.67064 132.851 9.7443C132.822 9.81796 132.815 9.89881 132.832 9.97638C132.849 10.0539 132.888 10.1247 132.946 10.1794Z" fill="#D72638"/>
<path d="M155.095 17.4023L151.331 14.091C151.015 13.812 150.642 13.6044 150.239 13.4822C149.835 13.36 149.41 13.326 148.992 13.3825L130.826 15.5637L127.797 13.6959C127.623 13.5907 127.42 13.5429 127.217 13.5593C127.014 13.5756 126.821 13.6554 126.666 13.7873C126.51 13.9191 126.401 14.0964 126.351 14.2942C126.302 14.4919 126.317 14.7 126.392 14.8892L128.077 18.9732C128.104 19.0411 128.149 19.1009 128.206 19.1467C128.263 19.1926 128.331 19.2231 128.403 19.2352C129.451 19.3837 133.615 19.4715 138.575 19.5049L134.974 27.747C134.942 27.8183 134.931 27.8968 134.941 27.974C134.951 28.0512 134.982 28.1243 135.03 28.1852C135.079 28.2462 135.143 28.2928 135.216 28.3199C135.289 28.3471 135.368 28.3538 135.445 28.3393L137.931 27.8741C138.067 27.848 138.19 27.7747 138.278 27.667L144.925 19.5387C148.483 19.5468 151.892 19.5342 154.295 19.5213C154.542 19.524 154.784 19.4506 154.988 19.311C155.192 19.1715 155.349 18.9727 155.436 18.7414C155.523 18.5101 155.537 18.2576 155.476 18.0181C155.415 17.7785 155.282 17.5636 155.095 17.4023Z" fill="#D72638"/>
</g>
<path d="M34.8458 55.561H27.8672V30.2485H40.3126C41.4844 30.2485 42.6153 30.3891 43.7051 30.6704C44.795 30.9399 45.7559 31.3735 46.588 31.9712C47.4317 32.5571 48.0997 33.3188 48.5919 34.2563C49.0958 35.1938 49.3477 36.3306 49.3477 37.6665C49.3477 38.7095 49.1251 39.6938 48.6797 40.6196C48.2462 41.5337 47.6602 42.354 46.9219 43.0806C46.1954 43.7954 45.3575 44.3931 44.4083 44.8735C43.459 45.3423 42.4747 45.6528 41.4551 45.8052C41.9122 46.5786 42.3868 47.311 42.879 48.0024C43.3829 48.6938 43.8868 49.3442 44.3907 49.9536C44.9063 50.5513 45.4161 51.1079 45.92 51.6235C46.4239 52.1274 46.9044 52.5903 47.3614 53.0122C48.4395 53.9966 49.5059 54.8462 50.5606 55.561H41.8594C41.1563 54.8931 40.4883 54.0903 39.8555 53.1528C39.3165 52.3559 38.7715 51.3716 38.2208 50.1997C37.6817 49.0161 37.2657 47.6509 36.9727 46.104H34.8458V55.561ZM42.2637 37.6665C42.2637 35.9673 41.8477 34.7192 41.0157 33.9223C40.1954 33.1255 38.959 32.727 37.3067 32.727H34.8458V43.7134H37.3067C38.1856 43.7134 38.9356 43.5493 39.5567 43.2212C40.1895 42.8813 40.7051 42.436 41.1036 41.8852C41.502 41.3227 41.795 40.6782 41.9825 39.9516C42.17 39.2251 42.2637 38.4634 42.2637 37.6665ZM77.9473 43.4497V43.7837C77.9239 44.7681 77.8184 45.7876 77.6309 46.8423C77.4551 47.897 77.2032 48.9516 76.8751 50.0063C76.5469 51.061 76.1544 52.104 75.6973 53.1352C75.2403 54.1665 74.7247 55.1509 74.1505 56.0884C73.588 57.0376 72.9786 57.9223 72.3223 58.7427C71.6661 59.5747 70.9747 60.3071 70.2481 60.9399L67.629 59.4282C68.0391 58.7368 68.4083 57.9809 68.7364 57.1606C69.0762 56.352 69.3809 55.5024 69.6505 54.6118C69.92 53.7212 70.1485 52.8071 70.336 51.8696C70.5352 50.9321 70.6993 50.0005 70.8282 49.0747C70.9571 48.1489 71.0508 47.2407 71.1094 46.3501C71.1797 45.4477 71.2149 44.5923 71.2149 43.7837C71.2149 43.1509 71.209 42.436 71.1973 41.6391C71.1973 40.8306 71.1505 40.0102 71.0567 39.1782C70.9747 38.3462 70.834 37.5376 70.6348 36.7524C70.4356 35.9556 70.1368 35.2466 69.7383 34.6255C69.3516 34.0044 68.8477 33.5063 68.2266 33.1313C67.6172 32.7563 66.8555 32.5688 65.9415 32.5688C65.1329 32.5688 64.4356 32.7095 63.8497 32.9907C63.2755 33.2602 62.7833 33.6294 62.3731 34.0981C61.9747 34.5552 61.6524 35.0884 61.4063 35.6977C61.1719 36.3071 60.9844 36.9516 60.8438 37.6313C60.7149 38.2993 60.627 38.979 60.5801 39.6704C60.545 40.3501 60.5274 40.9946 60.5274 41.604V46.5083H68.1036V49.4087H60.5274V55.561H53.5489V42.6938C53.5489 40.854 53.8419 39.1431 54.4278 37.561C55.0137 35.979 55.8399 34.6079 56.9063 33.4477C57.9844 32.2759 59.2735 31.3618 60.7735 30.7056C62.2852 30.0376 63.9669 29.7036 65.8184 29.7036C67.0723 29.7036 68.2442 29.8852 69.334 30.2485C70.4356 30.6001 71.4376 31.0923 72.3399 31.7251C73.2422 32.3462 74.045 33.0903 74.7481 33.9575C75.463 34.813 76.0547 35.7505 76.5235 36.77C77.004 37.7895 77.3672 38.8677 77.6133 40.0044C77.8594 41.1411 77.9708 42.2895 77.9473 43.4497ZM92.9415 55.561H86.5606L79.9161 30.2485H87.0352L91.2364 48.2134L94.963 30.2485H101.361L105.44 48.6704L110.027 30.2485H114.334L106.969 55.561H100.57L97.002 39.3891L92.9415 55.561ZM124.916 55.561H117.938V30.2485H124.916V55.561ZM153.656 36.5239L150.65 37.7895C150.416 37.0278 150.1 36.3306 149.701 35.6977C149.315 35.0649 148.846 34.5259 148.295 34.0806C147.756 33.6235 147.141 33.272 146.449 33.0259C145.758 32.7681 145.002 32.6391 144.182 32.6391C143.303 32.6391 142.494 32.7856 141.756 33.0786C141.029 33.3598 140.373 33.7524 139.787 34.2563C139.213 34.7602 138.709 35.3462 138.275 36.0141C137.842 36.6821 137.479 37.397 137.186 38.1587C136.893 38.9087 136.676 39.688 136.535 40.4966C136.395 41.3052 136.324 42.0962 136.324 42.8696C136.324 44.1001 136.465 45.3247 136.746 46.5434C137.039 47.7622 137.496 48.8579 138.117 49.8306C138.75 50.8032 139.565 51.5942 140.561 52.2036C141.557 52.8013 142.764 53.1001 144.182 53.1001C144.932 53.1001 145.641 52.977 146.309 52.7309C146.977 52.4731 147.58 52.1274 148.119 51.6938C148.67 51.2485 149.15 50.727 149.561 50.1294C149.971 49.5317 150.299 48.8872 150.545 48.1958L153.586 49.4087C153.141 50.522 152.531 51.5005 151.758 52.3442C150.984 53.1763 150.1 53.8677 149.104 54.4184C148.119 54.9692 147.059 55.3794 145.922 55.6489C144.797 55.9302 143.66 56.0708 142.512 56.0708C141.27 56.0708 140.074 55.9184 138.926 55.6138C137.789 55.3091 136.729 54.8755 135.744 54.313C134.76 53.7505 133.863 53.0708 133.055 52.2739C132.258 51.477 131.572 50.5923 130.998 49.6196C130.436 48.647 129.996 47.5923 129.68 46.4556C129.375 45.3071 129.223 44.1118 129.223 42.8696C129.223 41.6274 129.375 40.438 129.68 39.3013C129.996 38.1528 130.436 37.0923 130.998 36.1196C131.572 35.1352 132.258 34.2446 133.055 33.4477C133.863 32.6509 134.76 31.9712 135.744 31.4087C136.729 30.8462 137.789 30.4126 138.926 30.1079C140.074 29.8032 141.27 29.6509 142.512 29.6509C143.707 29.6509 144.873 29.7915 146.01 30.0727C147.158 30.354 148.225 30.7817 149.209 31.3559C150.193 31.9184 151.066 32.6333 151.828 33.5005C152.602 34.3559 153.211 35.3638 153.656 36.5239Z" fill="#D72638"/>
<line x1="19.002" y1="55.561" x2="19.002" y2="18.561" stroke="#D72638" stroke-width="6"/>
<line x1="124.004" y1="17.061" x2="-7.62939e-06" y2="17.061" stroke="#D72638" stroke-width="4"/>
<defs>
<clipPath id="clip0_70_461">
<rect width="28" height="28" fill="white" transform="translate(133.059) rotate(29.1612)"/>
</clipPath>
</defs>
</svg>
